{
	"asset":{
		"generator":"Khronos glTF Blender I/O v3.6.27",
		"version":"2.0"
	},
	"scene":0,
	"scenes":[
		{
			"name":"Scene",
			"nodes":[
				0,
				1,
				2,
				3,
				4,
				5,
				6,
				7,
				8,
				9,
				10
			]
		}
	],
	"nodes":[
		{
			"mesh":0,
			"name":"apron",
			"translation":[
				-6.042239665985107,
				-0.007786999922245741,
				0.1983649730682373
			]
		},
		{
			"mesh":1,
			"name":"curry",
			"rotation":[
				0.46906182169914246,
				-0.5279762148857117,
				0.4636472165584564,
				0.5350265502929688
			],
			"translation":[
				-7.643256664276123,
				2.587432384490967,
				0.21097442507743835
			]
		},
		{
			"mesh":2,
			"name":"eye r",
			"scale":[
				1,
				0.7844363451004028,
				1
			],
			"translation":[
				-6.949402809143066,
				5.4410834312438965,
				0.7488189339637756
			]
		},
		{
			"mesh":3,
			"name":"mouth",
			"rotation":[
				-0.47116515040397644,
				-0.5238261222839355,
				-0.4269762635231018,
				0.5668342709541321
			],
			"scale":[
				0.864016592502594,
				0.969127357006073,
				0.969882607460022
			],
			"translation":[
				-7.024968147277832,
				4.74448299407959,
				0.12124410271644592
			]
		},
		{
			"mesh":4,
			"name":"eye l",
			"scale":[
				1,
				0.7844363451004028,
				1
			],
			"translation":[
				-6.949402809143066,
				5.4410834312438965,
				-0.012800931930541992
			]
		},
		{
			"mesh":5,
			"name":"hand",
			"scale":[
				0.1995806246995926,
				0.1995806246995926,
				0.1995806246995926
			],
			"translation":[
				-6.248185157775879,
				5.560959815979004,
				2.5544450283050537
			]
		},
		{
			"mesh":6,
			"name":"body",
			"translation":[
				-6.042239665985107,
				-0.007786999922245741,
				0.1983649730682373
			]
		},
		{
			"mesh":7,
			"name":"\ud314",
			"rotation":[
				-0.5971047878265381,
				-0.7429146766662598,
				0.06928618997335434,
				0.29452183842658997
			],
			"scale":[
				1.399999976158142,
				1.399999976158142,
				1.399999976158142
			],
			"translation":[
				-6.239790439605713,
				4.972874164581299,
				1.7347158193588257
			]
		},
		{
			"mesh":8,
			"name":"hand. L",
			"rotation":[
				0,
				0,
				-1,
				0
			],
			"scale":[
				-0.20000000298023224,
				-0.20000000298023224,
				-0.20000000298023224
			],
			"translation":[
				-5.774059772491455,
				1.7985751628875732,
				-1.6718852519989014
			]
		},
		{
			"mesh":9,
			"name":"\ud314 L",
			"rotation":[
				-0.7429145574569702,
				0.5971047878265381,
				-0.29452207684516907,
				0.06928638368844986
			],
			"scale":[
				-1.399999976158142,
				-1.399999976158142,
				-1.4000000953674316
			],
			"translation":[
				-6.274922847747803,
				5.106091022491455,
				-1.3502564430236816
			]
		},
		{
			"mesh":10,
			"name":"\b\ub4a4\uc9d1\uac1c",
			"rotation":[
				0.3540104329586029,
				-0.3540104329586029,
				0.6121083498001099,
				0.6121083498001099
			],
			"scale":[
				0.35786235332489014,
				1,
				0.26832151412963867
			],
			"translation":[
				-4.940613269805908,
				6.573955535888672,
				3.7011730670928955
			]
		}
	],
	"materials":[
		{
			"doubleSided":true,
			"name":"Material.Apron",
			"pbrMetallicRoughness":{
				"baseColorFactor":[
					1,
					0.6795414090156555,
					0.008246221579611301,
					1
				],
				"metallicFactor":0,
				"roughnessFactor":0.4000000059604645
			}
		},
		{
			"doubleSided":true,
			"name":"Material.Poket",
			"pbrMetallicRoughness":{
				"baseColorFactor":[
					1,
					0.3762512803077698,
					0.008324303664267063,
					1
				],
				"metallicFactor":0,
				"roughnessFactor":0.35092025995254517
			}
		},
		{
			"alphaMode":"BLEND",
			"doubleSided":true,
			"name":"\u110f\u1161\u1105\u1166_\u1100\u1173\u11af\u110a\u1175 3",
			"pbrMetallicRoughness":{
				"metallicFactor":0,
				"roughnessFactor":0.5
			}
		},
		{
			"doubleSided":true,
			"name":"Material.face",
			"pbrMetallicRoughness":{
				"baseColorFactor":[
					0,
					0,
					0,
					1
				],
				"metallicFactor":0,
				"roughnessFactor":0.2243243306875229
			}
		},
		{
			"doubleSided":true,
			"name":"Material.bodyBottom",
			"pbrMetallicRoughness":{
				"baseColorFactor":[
					0.9214285612106323,
					0.863330066204071,
					0.6564545035362244,
					1
				],
				"metallicFactor":0,
				"roughnessFactor":0.3864865005016327
			}
		},
		{
			"doubleSided":true,
			"name":"MaterialMainColor",
			"pbrMetallicRoughness":{
				"baseColorFactor":[
					0.20190106332302094,
					0.18492263555526733,
					0.18492263555526733,
					1
				],
				"metallicFactor":0,
				"roughnessFactor":0.4000000059604645
			}
		}
	],
	"meshes":[
		{
			"name":"Circle.004",
			"primitives":[
				{
					"attributes":{
						"COLOR_0":0,
						"POSITION":1,
						"NORMAL":2,
						"TEXCOORD_0":3
					},
					"indices":4,
					"material":0
				},
				{
					"attributes":{
						"COLOR_0":5,
						"POSITION":6,
						"NORMAL":7,
						"TEXCOORD_0":8
					},
					"indices":9,
					"material":1
				}
			]
		},
		{
			"name":"\u110f\u1161\u1105\u1166_\u1100\u1173\u11af\u110a\u1175 3",
			"primitives":[
				{
					"attributes":{
						"POSITION":10,
						"NORMAL":11,
						"TEXCOORD_0":12
					},
					"indices":13,
					"material":2
				}
			]
		},
		{
			"name":"Cube.001",
			"primitives":[
				{
					"attributes":{
						"POSITION":14,
						"NORMAL":15,
						"TEXCOORD_0":16
					},
					"indices":17,
					"material":3
				}
			]
		},
		{
			"name":"BezierCurve",
			"primitives":[
				{
					"attributes":{
						"POSITION":18,
						"NORMAL":19,
						"TEXCOORD_0":20
					},
					"indices":21,
					"material":3
				}
			]
		},
		{
			"name":"Cube.002",
			"primitives":[
				{
					"attributes":{
						"POSITION":22,
						"NORMAL":23,
						"TEXCOORD_0":24
					},
					"indices":17,
					"material":3
				}
			]
		},
		{
			"name":"Sphere",
			"primitives":[
				{
					"attributes":{
						"POSITION":25,
						"NORMAL":26,
						"TEXCOORD_0":27
					},
					"indices":28,
					"material":4
				}
			]
		},
		{
			"name":"Circle",
			"primitives":[
				{
					"attributes":{
						"COLOR_0":29,
						"POSITION":30,
						"NORMAL":31,
						"TEXCOORD_0":32
					},
					"indices":33,
					"material":0
				},
				{
					"attributes":{
						"COLOR_0":34,
						"POSITION":35,
						"NORMAL":36,
						"TEXCOORD_0":37
					},
					"indices":38,
					"material":4
				}
			]
		},
		{
			"name":"BezierCurve.001",
			"primitives":[
				{
					"attributes":{
						"POSITION":39,
						"NORMAL":40,
						"TEXCOORD_0":41
					},
					"indices":42,
					"material":4
				}
			]
		},
		{
			"name":"Sphere.001",
			"primitives":[
				{
					"attributes":{
						"POSITION":43,
						"NORMAL":44,
						"TEXCOORD_0":45
					},
					"indices":28,
					"material":4
				}
			]
		},
		{
			"name":"BezierCurve.002",
			"primitives":[
				{
					"attributes":{
						"POSITION":46,
						"NORMAL":47,
						"TEXCOORD_0":48
					},
					"indices":42,
					"material":4
				}
			]
		},
		{
			"name":"Plane",
			"primitives":[
				{
					"attributes":{
						"POSITION":49,
						"NORMAL":50,
						"TEXCOORD_0":51
					},
					"indices":52,
					"material":5
				}
			]
		}
	],
	"accessors":[
		{
			"bufferView":0,
			"componentType":5123,
			"count":272,
			"normalized":true,
			"type":"VEC4"
		},
		{
			"bufferView":1,
			"componentType":5126,
			"count":272,
			"max":[
				1.6306633949279785,
				4.267707347869873,
				1.7488657236099243
			],
			"min":[
				-1.7511638402938843,
				0.9427962303161621,
				-1.753354787826538
			],
			"type":"VEC3"
		},
		{
			"bufferView":2,
			"componentType":5126,
			"count":272,
			"type":"VEC3"
		},
		{
			"bufferView":3,
			"componentType":5126,
			"count":272,
			"type":"VEC2"
		},
		{
			"bufferView":4,
			"componentType":5123,
			"count":1113,
			"type":"SCALAR"
		},
		{
			"bufferView":5,
			"componentType":5123,
			"count":27,
			"normalized":true,
			"type":"VEC4"
		},
		{
			"bufferView":6,
			"componentType":5126,
			"count":27,
			"max":[
				-1.0979859828948975,
				3.160013437271118,
				1.1508466005325317
			],
			"min":[
				-1.6607428789138794,
				2.053203821182251,
				-1.1553353071212769
			],
			"type":"VEC3"
		},
		{
			"bufferView":7,
			"componentType":5126,
			"count":27,
			"type":"VEC3"
		},
		{
			"bufferView":8,
			"componentType":5126,
			"count":27,
			"type":"VEC2"
		},
		{
			"bufferView":9,
			"componentType":5123,
			"count":96,
			"type":"SCALAR"
		},
		{
			"bufferView":10,
			"componentType":5126,
			"count":6,
			"max":[
				0.8371485471725464,
				0.06708128750324249,
				0.5087961554527283
			],
			"min":[
				-0.8337268233299255,
				-0.16727322340011597,
				-0.5219340324401855
			],
			"type":"VEC3"
		},
		{
			"bufferView":11,
			"componentType":5126,
			"count":6,
			"type":"VEC3"
		},
		{
			"bufferView":12,
			"componentType":5126,
			"count":6,
			"type":"VEC2"
		},
		{
			"bufferView":13,
			"componentType":5123,
			"count":12,
			"type":"SCALAR"
		},
		{
			"bufferView":14,
			"componentType":5126,
			"count":24,
			"max":[
				0.296858012676239,
				0.5112028121948242,
				0.06311792135238647
			],
			"min":[
				-0.31260520219802856,
				-0.5235155820846558,
				-0.43791812658309937
			],
			"type":"VEC3"
		},
		{
			"bufferView":15,
			"componentType":5126,
			"count":24,
			"type":"VEC3"
		},
		{
			"bufferView":16,
			"componentType":5126,
			"count":24,
			"type":"VEC2"
		},
		{
			"bufferView":17,
			"componentType":5123,
			"count":36,
			"type":"SCALAR"
		},
		{
			"bufferView":18,
			"componentType":5126,
			"count":637,
			"max":[
				0.6828685402870178,
				0.6051331758499146,
				0.7547761797904968
			],
			"min":[
				-0.5447472929954529,
				-0.33744728565216064,
				-0.30613410472869873
			],
			"type":"VEC3"
		},
		{
			"bufferView":19,
			"componentType":5126,
			"count":637,
			"type":"VEC3"
		},
		{
			"bufferView":20,
			"componentType":5126,
			"count":637,
			"type":"VEC2"
		},
		{
			"bufferView":21,
			"componentType":5123,
			"count":3456,
			"type":"SCALAR"
		},
		{
			"bufferView":22,
			"componentType":5126,
			"count":24,
			"max":[
				0.296858012676239,
				0.5112028121948242,
				0.06311792135238647
			],
			"min":[
				-0.31260520219802856,
				-0.5235155820846558,
				-0.43791812658309937
			],
			"type":"VEC3"
		},
		{
			"bufferView":23,
			"componentType":5126,
			"count":24,
			"type":"VEC3"
		},
		{
			"bufferView":24,
			"componentType":5126,
			"count":24,
			"type":"VEC2"
		},
		{
			"bufferView":25,
			"componentType":5126,
			"count":559,
			"max":[
				0.9999997019767761,
				1,
				0.9999993443489075
			],
			"min":[
				-0.9999990463256836,
				-1,
				-1
			],
			"type":"VEC3"
		},
		{
			"bufferView":26,
			"componentType":5126,
			"count":559,
			"type":"VEC3"
		},
		{
			"bufferView":27,
			"componentType":5126,
			"count":559,
			"type":"VEC2"
		},
		{
			"bufferView":28,
			"componentType":5123,
			"count":2880,
			"type":"SCALAR"
		},
		{
			"bufferView":29,
			"componentType":5123,
			"count":256,
			"normalized":true,
			"type":"VEC4"
		},
		{
			"bufferView":30,
			"componentType":5126,
			"count":256,
			"max":[
				2.520291328430176,
				8.262489318847656,
				2.520291805267334
			],
			"min":[
				-2.5202929973602295,
				6.509422779083252,
				-2.520292282104492
			],
			"type":"VEC3"
		},
		{
			"bufferView":31,
			"componentType":5126,
			"count":256,
			"type":"VEC3"
		},
		{
			"bufferView":32,
			"componentType":5126,
			"count":256,
			"type":"VEC2"
		},
		{
			"bufferView":33,
			"componentType":5123,
			"count":1050,
			"type":"SCALAR"
		},
		{
			"bufferView":34,
			"componentType":5123,
			"count":288,
			"normalized":true,
			"type":"VEC4"
		},
		{
			"bufferView":35,
			"componentType":5126,
			"count":288,
			"max":[
				1.6753885746002197,
				6.509422779083252,
				1.675389051437378
			],
			"min":[
				-1.6753898859024048,
				0,
				-1.675389289855957
			],
			"type":"VEC3"
		},
		{
			"bufferView":36,
			"componentType":5126,
			"count":288,
			"type":"VEC3"
		},
		{
			"bufferView":37,
			"componentType":5126,
			"count":288,
			"type":"VEC2"
		},
		{
			"bufferView":38,
			"componentType":5123,
			"count":1242,
			"type":"SCALAR"
		},
		{
			"bufferView":39,
			"componentType":5126,
			"count":169,
			"max":[
				0.5077292919158936,
				0.09999998658895493,
				0.07071065902709961
			],
			"min":[
				-1.0707106590270996,
				-0.26023489236831665,
				-0.4754488468170166
			],
			"type":"VEC3"
		},
		{
			"bufferView":40,
			"componentType":5126,
			"count":169,
			"type":"VEC3"
		},
		{
			"bufferView":41,
			"componentType":5126,
			"count":169,
			"type":"VEC2"
		},
		{
			"bufferView":42,
			"componentType":5123,
			"count":864,
			"type":"SCALAR"
		},
		{
			"bufferView":43,
			"componentType":5126,
			"count":559,
			"max":[
				0.9999997019767761,
				1,
				0.9999993443489075
			],
			"min":[
				-0.9999990463256836,
				-1,
				-1
			],
			"type":"VEC3"
		},
		{
			"bufferView":44,
			"componentType":5126,
			"count":559,
			"type":"VEC3"
		},
		{
			"bufferView":45,
			"componentType":5126,
			"count":559,
			"type":"VEC2"
		},
		{
			"bufferView":46,
			"componentType":5126,
			"count":169,
			"max":[
				-0.8348705768585205,
				0.09733896702528,
				0.03925130516290665
			],
			"min":[
				-2.153681755065918,
				-0.5672682523727417,
				-1.1811854839324951
			],
			"type":"VEC3"
		},
		{
			"bufferView":47,
			"componentType":5126,
			"count":169,
			"type":"VEC3"
		},
		{
			"bufferView":48,
			"componentType":5126,
			"count":169,
			"type":"VEC2"
		},
		{
			"bufferView":49,
			"componentType":5126,
			"count":174,
			"max":[
				0.114188551902771,
				1.3962630033493042,
				2.17850399017334
			],
			"min":[
				-5.345238208770752,
				1.2196274995803833,
				-0.2201089859008789
			],
			"type":"VEC3"
		},
		{
			"bufferView":50,
			"componentType":5126,
			"count":174,
			"type":"VEC3"
		},
		{
			"bufferView":51,
			"componentType":5126,
			"count":174,
			"type":"VEC2"
		},
		{
			"bufferView":52,
			"componentType":5123,
			"count":396,
			"type":"SCALAR"
		}
	],
	"bufferViews":[
		{
			"buffer":0,
			"byteLength":2176,
			"byteOffset":0,
			"target":34962
		},
		{
			"buffer":0,
			"byteLength":3264,
			"byteOffset":2176,
			"target":34962
		},
		{
			"buffer":0,
			"byteLength":3264,
			"byteOffset":5440,
			"target":34962
		},
		{
			"buffer":0,
			"byteLength":2176,
			"byteOffset":8704,
			"target":34962
		},
		{
			"buffer":0,
			"byteLength":2226,
			"byteOffset":10880,
			"target":34963
		},
		{
			"buffer":0,
			"byteLength":216,
			"byteOffset":13108,
			"target":34962
		},
		{
			"buffer":0,
			"byteLength":324,
			"byteOffset":13324,
			"target":34962
		},
		{
			"buffer":0,
			"byteLength":324,
			"byteOffset":13648,
			"target":34962
		},
		{
			"buffer":0,
			"byteLength":216,
			"byteOffset":13972,
			"target":34962
		},
		{
			"buffer":0,
			"byteLength":192,
			"byteOffset":14188,
			"target":34963
		},
		{
			"buffer":0,
			"byteLength":72,
			"byteOffset":14380,
			"target":34962
		},
		{
			"buffer":0,
			"byteLength":72,
			"byteOffset":14452,
			"target":34962
		},
		{
			"buffer":0,
			"byteLength":48,
			"byteOffset":14524,
			"target":34962
		},
		{
			"buffer":0,
			"byteLength":24,
			"byteOffset":14572,
			"target":34963
		},
		{
			"buffer":0,
			"byteLength":288,
			"byteOffset":14596,
			"target":34962
		},
		{
			"buffer":0,
			"byteLength":288,
			"byteOffset":14884,
			"target":34962
		},
		{
			"buffer":0,
			"byteLength":192,
			"byteOffset":15172,
			"target":34962
		},
		{
			"buffer":0,
			"byteLength":72,
			"byteOffset":15364,
			"target":34963
		},
		{
			"buffer":0,
			"byteLength":7644,
			"byteOffset":15436,
			"target":34962
		},
		{
			"buffer":0,
			"byteLength":7644,
			"byteOffset":23080,
			"target":34962
		},
		{
			"buffer":0,
			"byteLength":5096,
			"byteOffset":30724,
			"target":34962
		},
		{
			"buffer":0,
			"byteLength":6912,
			"byteOffset":35820,
			"target":34963
		},
		{
			"buffer":0,
			"byteLength":288,
			"byteOffset":42732,
			"target":34962
		},
		{
			"buffer":0,
			"byteLength":288,
			"byteOffset":43020,
			"target":34962
		},
		{
			"buffer":0,
			"byteLength":192,
			"byteOffset":43308,
			"target":34962
		},
		{
			"buffer":0,
			"byteLength":6708,
			"byteOffset":43500,
			"target":34962
		},
		{
			"buffer":0,
			"byteLength":6708,
			"byteOffset":50208,
			"target":34962
		},
		{
			"buffer":0,
			"byteLength":4472,
			"byteOffset":56916,
			"target":34962
		},
		{
			"buffer":0,
			"byteLength":5760,
			"byteOffset":61388,
			"target":34963
		},
		{
			"buffer":0,
			"byteLength":2048,
			"byteOffset":67148,
			"target":34962
		},
		{
			"buffer":0,
			"byteLength":3072,
			"byteOffset":69196,
			"target":34962
		},
		{
			"buffer":0,
			"byteLength":3072,
			"byteOffset":72268,
			"target":34962
		},
		{
			"buffer":0,
			"byteLength":2048,
			"byteOffset":75340,
			"target":34962
		},
		{
			"buffer":0,
			"byteLength":2100,
			"byteOffset":77388,
			"target":34963
		},
		{
			"buffer":0,
			"byteLength":2304,
			"byteOffset":79488,
			"target":34962
		},
		{
			"buffer":0,
			"byteLength":3456,
			"byteOffset":81792,
			"target":34962
		},
		{
			"buffer":0,
			"byteLength":3456,
			"byteOffset":85248,
			"target":34962
		},
		{
			"buffer":0,
			"byteLength":2304,
			"byteOffset":88704,
			"target":34962
		},
		{
			"buffer":0,
			"byteLength":2484,
			"byteOffset":91008,
			"target":34963
		},
		{
			"buffer":0,
			"byteLength":2028,
			"byteOffset":93492,
			"target":34962
		},
		{
			"buffer":0,
			"byteLength":2028,
			"byteOffset":95520,
			"target":34962
		},
		{
			"buffer":0,
			"byteLength":1352,
			"byteOffset":97548,
			"target":34962
		},
		{
			"buffer":0,
			"byteLength":1728,
			"byteOffset":98900,
			"target":34963
		},
		{
			"buffer":0,
			"byteLength":6708,
			"byteOffset":100628,
			"target":34962
		},
		{
			"buffer":0,
			"byteLength":6708,
			"byteOffset":107336,
			"target":34962
		},
		{
			"buffer":0,
			"byteLength":4472,
			"byteOffset":114044,
			"target":34962
		},
		{
			"buffer":0,
			"byteLength":2028,
			"byteOffset":118516,
			"target":34962
		},
		{
			"buffer":0,
			"byteLength":2028,
			"byteOffset":120544,
			"target":34962
		},
		{
			"buffer":0,
			"byteLength":1352,
			"byteOffset":122572,
			"target":34962
		},
		{
			"buffer":0,
			"byteLength":2088,
			"byteOffset":123924,
			"target":34962
		},
		{
			"buffer":0,
			"byteLength":2088,
			"byteOffset":126012,
			"target":34962
		},
		{
			"buffer":0,
			"byteLength":1392,
			"byteOffset":128100,
			"target":34962
		},
		{
			"buffer":0,
			"byteLength":792,
			"byteOffset":129492,
			"target":34963
		}
	],
	"buffers":[
		{
			"byteLength":130284,
			"uri":"character_seperate.bin"
		}
	]
}
