{
	"asset":{
		"generator":"Khronos glTF Blender I/O v3.6.27",
		"version":"2.0"
	},
	"scene":0,
	"scenes":[
		{
			"name":"Scene",
			"nodes":[
				0,
				1,
				2,
				3,
				4,
				5,
				6,
				7,
				8,
				9,
				10
			]
		}
	],
	"nodes":[
		{
			"mesh":0,
			"name":"apron",
			"translation":[
				-6.042239665985107,
				-0.007786999922245741,
				0.1983649730682373
			]
		},
		{
			"mesh":1,
			"name":"curry.001",
			"rotation":[
				0.46906182169914246,
				-0.5279762148857117,
				0.4636472165584564,
				0.5350265502929688
			],
			"translation":[
				-7.643256664276123,
				2.587432384490967,
				0.21097442507743835
			]
		},
		{
			"mesh":2,
			"name":"eye r",
			"scale":[
				1,
				0.7175384163856506,
				1
			],
			"translation":[
				-6.949402809143066,
				5.4410834312438965,
				0.734137237071991
			]
		},
		{
			"mesh":3,
			"name":"mouth",
			"rotation":[
				-0.47116515040397644,
				-0.5238260626792908,
				-0.42697620391845703,
				0.5668342113494873
			],
			"scale":[
				0.8095311522483826,
				0.9610037803649902,
				0.7418066263198853
			],
			"translation":[
				-6.9998369216918945,
				4.899521350860596,
				0.12441892176866531
			]
		},
		{
			"mesh":4,
			"name":"eye l",
			"scale":[
				1,
				0.7175384163856506,
				1
			],
			"translation":[
				-6.949402809143066,
				5.4410834312438965,
				0.0016791056841611862
			]
		},
		{
			"mesh":5,
			"name":"hand",
			"scale":[
				0.1995806246995926,
				0.1995806246995926,
				0.1995806246995926
			],
			"translation":[
				-6.248185157775879,
				5.560959815979004,
				2.5544450283050537
			]
		},
		{
			"mesh":6,
			"name":"body",
			"translation":[
				-6.042239665985107,
				-0.007786999922245741,
				0.1983649730682373
			]
		},
		{
			"mesh":7,
			"name":"\ud314",
			"rotation":[
				-0.5971047878265381,
				-0.7429146766662598,
				0.06928618997335434,
				0.29452183842658997
			],
			"scale":[
				1.399999976158142,
				1.399999976158142,
				1.399999976158142
			],
			"translation":[
				-6.239790439605713,
				4.972874164581299,
				1.7347158193588257
			]
		},
		{
			"mesh":8,
			"name":"hand. L",
			"rotation":[
				0,
				0,
				-1,
				0
			],
			"scale":[
				-0.20000000298023224,
				-0.20000000298023224,
				-0.20000000298023224
			],
			"translation":[
				-5.774059772491455,
				1.7985751628875732,
				-1.6718852519989014
			]
		},
		{
			"mesh":9,
			"name":"\ud314 L",
			"rotation":[
				-0.7429145574569702,
				0.5971047878265381,
				-0.29452207684516907,
				0.06928638368844986
			],
			"scale":[
				-1.399999976158142,
				-1.399999976158142,
				-1.4000000953674316
			],
			"translation":[
				-6.274922847747803,
				5.106091022491455,
				-1.3502564430236816
			]
		},
		{
			"mesh":10,
			"name":"\b\ub4a4\uc9d1\uac1c",
			"rotation":[
				0.3540104329586029,
				-0.3540104329586029,
				0.6121083498001099,
				0.6121083498001099
			],
			"scale":[
				0.35786235332489014,
				1,
				0.26832151412963867
			],
			"translation":[
				-4.940613269805908,
				6.573955535888672,
				3.7011730670928955
			]
		}
	],
	"materials":[
		{
			"doubleSided":true,
			"name":"Material.Apron",
			"pbrMetallicRoughness":{
				"baseColorFactor":[
					1,
					0.6795414090156555,
					0.008246221579611301,
					1
				],
				"metallicFactor":0,
				"roughnessFactor":0.4000000059604645
			}
		},
		{
			"doubleSided":true,
			"name":"Material.Poket",
			"pbrMetallicRoughness":{
				"baseColorFactor":[
					1,
					0.3762512803077698,
					0.008324303664267063,
					1
				],
				"metallicFactor":0,
				"roughnessFactor":0.35092025995254517
			}
		},
		{
			"alphaMode":"BLEND",
			"doubleSided":true,
			"name":"\u110f\u1161\u1105\u1166_\u1100\u1173\u11af\u110a\u1175 3",
			"pbrMetallicRoughness":{
				"baseColorTexture":{
					"index":0
				},
				"metallicFactor":0,
				"roughnessFactor":0.5
			}
		},
		{
			"doubleSided":true,
			"name":"Material.face",
			"pbrMetallicRoughness":{
				"baseColorFactor":[
					0,
					0,
					0,
					1
				],
				"metallicFactor":0,
				"roughnessFactor":0.1436791718006134
			}
		},
		{
			"doubleSided":true,
			"name":"Material.face",
			"pbrMetallicRoughness":{
				"baseColorFactor":[
					0,
					0,
					0,
					1
				],
				"metallicFactor":0,
				"roughnessFactor":0.1436791718006134
			}
		},
		{
			"doubleSided":true,
			"name":"Material.bodyBottom",
			"pbrMetallicRoughness":{
				"baseColorFactor":[
					0.9214285612106323,
					0.863330066204071,
					0.6564545035362244,
					1
				],
				"metallicFactor":0,
				"roughnessFactor":0.3864865005016327
			}
		},
		{
			"doubleSided":true,
			"name":"Material.bodyTop",
			"pbrMetallicRoughness":{
				"baseColorFactor":[
					0.18446944653987885,
					0.05270575359463692,
					0.03520278260111809,
					1
				],
				"metallicFactor":0,
				"roughnessFactor":0.4000000059604645
			}
		},
		{
			"doubleSided":true,
			"name":"Material.bodyBottom",
			"pbrMetallicRoughness":{
				"baseColorFactor":[
					0.9214285612106323,
					0.863330066204071,
					0.6564545035362244,
					1
				],
				"metallicFactor":0,
				"roughnessFactor":0.3864865005016327
			}
		},
		{
			"doubleSided":true,
			"name":"MaterialMainColor",
			"pbrMetallicRoughness":{
				"baseColorFactor":[
					0.20190106332302094,
					0.18492263555526733,
					0.18492263555526733,
					1
				],
				"metallicFactor":0,
				"roughnessFactor":0.4000000059604645
			}
		}
	],
	"meshes":[
		{
			"name":"Circle.004",
			"primitives":[
				{
					"attributes":{
						"COLOR_0":0,
						"POSITION":1,
						"NORMAL":2,
						"TEXCOORD_0":3
					},
					"indices":4,
					"material":0
				},
				{
					"attributes":{
						"COLOR_0":5,
						"POSITION":6,
						"NORMAL":7,
						"TEXCOORD_0":8
					},
					"indices":9,
					"material":1
				}
			]
		},
		{
			"name":"\u110f\u1161\u1105\u1166_\u1100\u1173\u11af\u110a\u1175 3",
			"primitives":[
				{
					"attributes":{
						"POSITION":10,
						"NORMAL":11,
						"TEXCOORD_0":12
					},
					"indices":13,
					"material":2
				}
			]
		},
		{
			"name":"Cube.001",
			"primitives":[
				{
					"attributes":{
						"POSITION":14,
						"NORMAL":15,
						"TEXCOORD_0":16
					},
					"indices":17,
					"material":3
				}
			]
		},
		{
			"name":"BezierCurve",
			"primitives":[
				{
					"attributes":{
						"POSITION":18,
						"NORMAL":19,
						"TEXCOORD_0":20
					},
					"indices":21,
					"material":4
				}
			]
		},
		{
			"name":"Cube.002",
			"primitives":[
				{
					"attributes":{
						"POSITION":22,
						"NORMAL":23,
						"TEXCOORD_0":24
					},
					"indices":17,
					"material":3
				}
			]
		},
		{
			"name":"Sphere",
			"primitives":[
				{
					"attributes":{
						"POSITION":25,
						"NORMAL":26,
						"TEXCOORD_0":27
					},
					"indices":28,
					"material":5
				}
			]
		},
		{
			"name":"Circle",
			"primitives":[
				{
					"attributes":{
						"COLOR_0":29,
						"POSITION":30,
						"NORMAL":31,
						"TEXCOORD_0":32
					},
					"indices":33,
					"material":6
				},
				{
					"attributes":{
						"COLOR_0":34,
						"POSITION":35,
						"NORMAL":36,
						"TEXCOORD_0":37
					},
					"indices":38,
					"material":5
				}
			]
		},
		{
			"name":"BezierCurve.001",
			"primitives":[
				{
					"attributes":{
						"POSITION":39,
						"NORMAL":40,
						"TEXCOORD_0":41
					},
					"indices":42,
					"material":7
				}
			]
		},
		{
			"name":"Sphere.001",
			"primitives":[
				{
					"attributes":{
						"POSITION":43,
						"NORMAL":44,
						"TEXCOORD_0":45
					},
					"indices":28,
					"material":5
				}
			]
		},
		{
			"name":"BezierCurve.002",
			"primitives":[
				{
					"attributes":{
						"POSITION":46,
						"NORMAL":47,
						"TEXCOORD_0":48
					},
					"indices":42,
					"material":7
				}
			]
		},
		{
			"name":"Plane",
			"primitives":[
				{
					"attributes":{
						"POSITION":49,
						"NORMAL":50,
						"TEXCOORD_0":51
					},
					"indices":52,
					"material":8
				}
			]
		}
	],
	"textures":[
		{
			"sampler":0,
			"source":0
		}
	],
	"images":[
		{
			"mimeType":"image/png",
			"name":"\u110f\u1161\u1105\u1166\u1100\u1173\u11af\u110a\u11753",
			"uri":"%E1%84%8F%E1%85%A1%E1%84%85%E1%85%A6%E1%84%80%E1%85%B3%E1%86%AF%E1%84%8A%E1%85%B53.png"
		}
	],
	"accessors":[
		{
			"bufferView":0,
			"componentType":5123,
			"count":3234,
			"normalized":true,
			"type":"VEC4"
		},
		{
			"bufferView":1,
			"componentType":5126,
			"count":3234,
			"max":[
				1.6202189922332764,
				4.266892433166504,
				1.7376501560211182
			],
			"min":[
				-1.7399483919143677,
				0.9427963495254517,
				-1.742139220237732
			],
			"type":"VEC3"
		},
		{
			"bufferView":2,
			"componentType":5126,
			"count":3234,
			"type":"VEC3"
		},
		{
			"bufferView":3,
			"componentType":5126,
			"count":3234,
			"type":"VEC2"
		},
		{
			"bufferView":4,
			"componentType":5123,
			"count":17928,
			"type":"SCALAR"
		},
		{
			"bufferView":5,
			"componentType":5123,
			"count":297,
			"normalized":true,
			"type":"VEC4"
		},
		{
			"bufferView":6,
			"componentType":5126,
			"count":297,
			"max":[
				-1.1469857692718506,
				3.0671803951263428,
				1.0843085050582886
			],
			"min":[
				-1.6353346109390259,
				2.144838333129883,
				-1.0887972116470337
			],
			"type":"VEC3"
		},
		{
			"bufferView":7,
			"componentType":5126,
			"count":297,
			"type":"VEC3"
		},
		{
			"bufferView":8,
			"componentType":5126,
			"count":297,
			"type":"VEC2"
		},
		{
			"bufferView":9,
			"componentType":5123,
			"count":1536,
			"type":"SCALAR"
		},
		{
			"bufferView":10,
			"componentType":5126,
			"count":14,
			"max":[
				0.8384288549423218,
				0.0011535761877894402,
				0.5001512169837952
			],
			"min":[
				-0.8330183625221252,
				-0.22326421737670898,
				-0.5292759537696838
			],
			"type":"VEC3"
		},
		{
			"bufferView":11,
			"componentType":5126,
			"count":14,
			"type":"VEC3"
		},
		{
			"bufferView":12,
			"componentType":5126,
			"count":14,
			"type":"VEC2"
		},
		{
			"bufferView":13,
			"componentType":5123,
			"count":36,
			"type":"SCALAR"
		},
		{
			"bufferView":14,
			"componentType":5126,
			"count":1649,
			"max":[
				0.247950479388237,
				0.34216561913490295,
				0.02291126921772957
			],
			"min":[
				-0.26369765400886536,
				-0.3544786274433136,
				-0.3977115750312805
			],
			"type":"VEC3"
		},
		{
			"bufferView":15,
			"componentType":5126,
			"count":1649,
			"type":"VEC3"
		},
		{
			"bufferView":16,
			"componentType":5126,
			"count":1649,
			"type":"VEC2"
		},
		{
			"bufferView":17,
			"componentType":5123,
			"count":9216,
			"type":"SCALAR"
		},
		{
			"bufferView":18,
			"componentType":5126,
			"count":637,
			"max":[
				0.6828685402870178,
				0.6051331758499146,
				0.7547761797904968
			],
			"min":[
				-0.5447472929954529,
				-0.33744728565216064,
				-0.30613410472869873
			],
			"type":"VEC3"
		},
		{
			"bufferView":19,
			"componentType":5126,
			"count":637,
			"type":"VEC3"
		},
		{
			"bufferView":20,
			"componentType":5126,
			"count":637,
			"type":"VEC2"
		},
		{
			"bufferView":21,
			"componentType":5123,
			"count":3456,
			"type":"SCALAR"
		},
		{
			"bufferView":22,
			"componentType":5126,
			"count":1649,
			"max":[
				0.247950479388237,
				0.34216561913490295,
				0.022911349311470985
			],
			"min":[
				-0.26369765400886536,
				-0.3544786274433136,
				-0.39771148562431335
			],
			"type":"VEC3"
		},
		{
			"bufferView":23,
			"componentType":5126,
			"count":1649,
			"type":"VEC3"
		},
		{
			"bufferView":24,
			"componentType":5126,
			"count":1649,
			"type":"VEC2"
		},
		{
			"bufferView":25,
			"componentType":5126,
			"count":515083,
			"max":[
				0.9872310161590576,
				0.9975767135620117,
				0.9872307181358337
			],
			"min":[
				-0.9872305393218994,
				-0.9975767135620117,
				-0.9872310161590576
			],
			"type":"VEC3"
		},
		{
			"bufferView":26,
			"componentType":5126,
			"count":515083,
			"type":"VEC3"
		},
		{
			"bufferView":27,
			"componentType":5126,
			"count":515083,
			"type":"VEC2"
		},
		{
			"bufferView":28,
			"componentType":5125,
			"count":3047424,
			"type":"SCALAR"
		},
		{
			"bufferView":29,
			"componentType":5123,
			"count":2898,
			"normalized":true,
			"type":"VEC4"
		},
		{
			"bufferView":30,
			"componentType":5126,
			"count":2898,
			"max":[
				2.1821959018707275,
				7.915637969970703,
				2.2451205253601074
			],
			"min":[
				-2.3207945823669434,
				6.294102668762207,
				-2.265066146850586
			],
			"type":"VEC3"
		},
		{
			"bufferView":31,
			"componentType":5126,
			"count":2898,
			"type":"VEC3"
		},
		{
			"bufferView":32,
			"componentType":5126,
			"count":2898,
			"type":"VEC2"
		},
		{
			"bufferView":33,
			"componentType":5123,
			"count":16128,
			"type":"SCALAR"
		},
		{
			"bufferView":34,
			"componentType":5123,
			"count":3753,
			"normalized":true,
			"type":"VEC4"
		},
		{
			"bufferView":35,
			"componentType":5126,
			"count":3753,
			"max":[
				1.5537371635437012,
				6.294103145599365,
				1.5537375211715698
			],
			"min":[
				-1.5537384748458862,
				0,
				-1.5537378787994385
			],
			"type":"VEC3"
		},
		{
			"bufferView":36,
			"componentType":5126,
			"count":3753,
			"type":"VEC3"
		},
		{
			"bufferView":37,
			"componentType":5126,
			"count":3753,
			"type":"VEC2"
		},
		{
			"bufferView":38,
			"componentType":5123,
			"count":19200,
			"type":"SCALAR"
		},
		{
			"bufferView":39,
			"componentType":5126,
			"count":169,
			"max":[
				0.5077292919158936,
				0.09999998658895493,
				0.07071065902709961
			],
			"min":[
				-1.0707106590270996,
				-0.26023489236831665,
				-0.4754488468170166
			],
			"type":"VEC3"
		},
		{
			"bufferView":40,
			"componentType":5126,
			"count":169,
			"type":"VEC3"
		},
		{
			"bufferView":41,
			"componentType":5126,
			"count":169,
			"type":"VEC2"
		},
		{
			"bufferView":42,
			"componentType":5123,
			"count":864,
			"type":"SCALAR"
		},
		{
			"bufferView":43,
			"componentType":5126,
			"count":515083,
			"max":[
				0.9872310161590576,
				0.9975767135620117,
				0.9872307181358337
			],
			"min":[
				-0.9872305393218994,
				-0.9975767135620117,
				-0.9872310161590576
			],
			"type":"VEC3"
		},
		{
			"bufferView":44,
			"componentType":5126,
			"count":515083,
			"type":"VEC3"
		},
		{
			"bufferView":45,
			"componentType":5126,
			"count":515083,
			"type":"VEC2"
		},
		{
			"bufferView":46,
			"componentType":5126,
			"count":169,
			"max":[
				-0.8348705768585205,
				0.09733896702528,
				0.03925130516290665
			],
			"min":[
				-2.153681755065918,
				-0.5672682523727417,
				-1.1811854839324951
			],
			"type":"VEC3"
		},
		{
			"bufferView":47,
			"componentType":5126,
			"count":169,
			"type":"VEC3"
		},
		{
			"bufferView":48,
			"componentType":5126,
			"count":169,
			"type":"VEC2"
		},
		{
			"bufferView":49,
			"componentType":5126,
			"count":174,
			"max":[
				0.114188551902771,
				1.3962630033493042,
				2.17850399017334
			],
			"min":[
				-5.345238208770752,
				1.2196274995803833,
				-0.2201089859008789
			],
			"type":"VEC3"
		},
		{
			"bufferView":50,
			"componentType":5126,
			"count":174,
			"type":"VEC3"
		},
		{
			"bufferView":51,
			"componentType":5126,
			"count":174,
			"type":"VEC2"
		},
		{
			"bufferView":52,
			"componentType":5123,
			"count":396,
			"type":"SCALAR"
		}
	],
	"bufferViews":[
		{
			"buffer":0,
			"byteLength":25872,
			"byteOffset":0,
			"target":34962
		},
		{
			"buffer":0,
			"byteLength":38808,
			"byteOffset":25872,
			"target":34962
		},
		{
			"buffer":0,
			"byteLength":38808,
			"byteOffset":64680,
			"target":34962
		},
		{
			"buffer":0,
			"byteLength":25872,
			"byteOffset":103488,
			"target":34962
		},
		{
			"buffer":0,
			"byteLength":35856,
			"byteOffset":129360,
			"target":34963
		},
		{
			"buffer":0,
			"byteLength":2376,
			"byteOffset":165216,
			"target":34962
		},
		{
			"buffer":0,
			"byteLength":3564,
			"byteOffset":167592,
			"target":34962
		},
		{
			"buffer":0,
			"byteLength":3564,
			"byteOffset":171156,
			"target":34962
		},
		{
			"buffer":0,
			"byteLength":2376,
			"byteOffset":174720,
			"target":34962
		},
		{
			"buffer":0,
			"byteLength":3072,
			"byteOffset":177096,
			"target":34963
		},
		{
			"buffer":0,
			"byteLength":168,
			"byteOffset":180168,
			"target":34962
		},
		{
			"buffer":0,
			"byteLength":168,
			"byteOffset":180336,
			"target":34962
		},
		{
			"buffer":0,
			"byteLength":112,
			"byteOffset":180504,
			"target":34962
		},
		{
			"buffer":0,
			"byteLength":72,
			"byteOffset":180616,
			"target":34963
		},
		{
			"buffer":0,
			"byteLength":19788,
			"byteOffset":180688,
			"target":34962
		},
		{
			"buffer":0,
			"byteLength":19788,
			"byteOffset":200476,
			"target":34962
		},
		{
			"buffer":0,
			"byteLength":13192,
			"byteOffset":220264,
			"target":34962
		},
		{
			"buffer":0,
			"byteLength":18432,
			"byteOffset":233456,
			"target":34963
		},
		{
			"buffer":0,
			"byteLength":7644,
			"byteOffset":251888,
			"target":34962
		},
		{
			"buffer":0,
			"byteLength":7644,
			"byteOffset":259532,
			"target":34962
		},
		{
			"buffer":0,
			"byteLength":5096,
			"byteOffset":267176,
			"target":34962
		},
		{
			"buffer":0,
			"byteLength":6912,
			"byteOffset":272272,
			"target":34963
		},
		{
			"buffer":0,
			"byteLength":19788,
			"byteOffset":279184,
			"target":34962
		},
		{
			"buffer":0,
			"byteLength":19788,
			"byteOffset":298972,
			"target":34962
		},
		{
			"buffer":0,
			"byteLength":13192,
			"byteOffset":318760,
			"target":34962
		},
		{
			"buffer":0,
			"byteLength":6180996,
			"byteOffset":331952,
			"target":34962
		},
		{
			"buffer":0,
			"byteLength":6180996,
			"byteOffset":6512948,
			"target":34962
		},
		{
			"buffer":0,
			"byteLength":4120664,
			"byteOffset":12693944,
			"target":34962
		},
		{
			"buffer":0,
			"byteLength":12189696,
			"byteOffset":16814608,
			"target":34963
		},
		{
			"buffer":0,
			"byteLength":23184,
			"byteOffset":29004304,
			"target":34962
		},
		{
			"buffer":0,
			"byteLength":34776,
			"byteOffset":29027488,
			"target":34962
		},
		{
			"buffer":0,
			"byteLength":34776,
			"byteOffset":29062264,
			"target":34962
		},
		{
			"buffer":0,
			"byteLength":23184,
			"byteOffset":29097040,
			"target":34962
		},
		{
			"buffer":0,
			"byteLength":32256,
			"byteOffset":29120224,
			"target":34963
		},
		{
			"buffer":0,
			"byteLength":30024,
			"byteOffset":29152480,
			"target":34962
		},
		{
			"buffer":0,
			"byteLength":45036,
			"byteOffset":29182504,
			"target":34962
		},
		{
			"buffer":0,
			"byteLength":45036,
			"byteOffset":29227540,
			"target":34962
		},
		{
			"buffer":0,
			"byteLength":30024,
			"byteOffset":29272576,
			"target":34962
		},
		{
			"buffer":0,
			"byteLength":38400,
			"byteOffset":29302600,
			"target":34963
		},
		{
			"buffer":0,
			"byteLength":2028,
			"byteOffset":29341000,
			"target":34962
		},
		{
			"buffer":0,
			"byteLength":2028,
			"byteOffset":29343028,
			"target":34962
		},
		{
			"buffer":0,
			"byteLength":1352,
			"byteOffset":29345056,
			"target":34962
		},
		{
			"buffer":0,
			"byteLength":1728,
			"byteOffset":29346408,
			"target":34963
		},
		{
			"buffer":0,
			"byteLength":6180996,
			"byteOffset":29348136,
			"target":34962
		},
		{
			"buffer":0,
			"byteLength":6180996,
			"byteOffset":35529132,
			"target":34962
		},
		{
			"buffer":0,
			"byteLength":4120664,
			"byteOffset":41710128,
			"target":34962
		},
		{
			"buffer":0,
			"byteLength":2028,
			"byteOffset":45830792,
			"target":34962
		},
		{
			"buffer":0,
			"byteLength":2028,
			"byteOffset":45832820,
			"target":34962
		},
		{
			"buffer":0,
			"byteLength":1352,
			"byteOffset":45834848,
			"target":34962
		},
		{
			"buffer":0,
			"byteLength":2088,
			"byteOffset":45836200,
			"target":34962
		},
		{
			"buffer":0,
			"byteLength":2088,
			"byteOffset":45838288,
			"target":34962
		},
		{
			"buffer":0,
			"byteLength":1392,
			"byteOffset":45840376,
			"target":34962
		},
		{
			"buffer":0,
			"byteLength":792,
			"byteOffset":45841768,
			"target":34963
		}
	],
	"samplers":[
		{
			"magFilter":9729,
			"minFilter":9987,
			"wrapS":33071,
			"wrapT":33071
		}
	],
	"buffers":[
		{
			"byteLength":45842560,
			"uri":"mushroom_final_9.bin"
		}
	]
}
